<svg width="1680" height="960" viewBox="0 0 1680 960" fill="none" xmlns="http://www.w3.org/2000/svg">
<rect width="1680" height="960" fill="white"/>
<path d="M0 0H1680V960H0V0Z" fill="#E5E5E5"/>
<path d="M0.5 959.138V0.86159L838.992 480L0.5 959.138ZM1.88282 959.5L840 480.576L1678.12 959.5H1.88282ZM1679.5 959.138L841.008 480L1679.5 0.861577V959.138ZM1678.12 0.5L840 479.424L1.88278 0.5H1678.12Z" stroke="black" stroke-opacity="0.3"/>
<path d="M249.943 656.384H236.167V652.8H267.863V656.384H254.087V692H249.943V656.384ZM287.811 662.32C291.507 662.32 294.438 663.403 296.603 665.568C298.806 667.696 299.907 670.813 299.907 674.92V692H295.931V675.312C295.931 672.251 295.166 669.917 293.635 668.312C292.104 666.707 289.92 665.904 287.083 665.904C283.91 665.904 281.39 666.856 279.523 668.76C277.694 670.627 276.779 673.221 276.779 676.544V692H272.803V650.448H276.779V667.696C277.862 665.979 279.355 664.653 281.259 663.72C283.163 662.787 285.347 662.32 287.811 662.32ZM335.619 678.504H310.979C311.203 681.565 312.379 684.048 314.507 685.952C316.635 687.819 319.323 688.752 322.571 688.752C324.4 688.752 326.08 688.435 327.611 687.8C329.141 687.128 330.467 686.157 331.587 684.888L333.827 687.464C332.52 689.032 330.877 690.227 328.899 691.048C326.957 691.869 324.811 692.28 322.459 692.28C319.435 692.28 316.747 691.645 314.395 690.376C312.08 689.069 310.269 687.277 308.963 685C307.656 682.723 307.003 680.147 307.003 677.272C307.003 674.397 307.619 671.821 308.851 669.544C310.12 667.267 311.837 665.493 314.003 664.224C316.205 662.955 318.669 662.32 321.395 662.32C324.12 662.32 326.565 662.955 328.731 664.224C330.896 665.493 332.595 667.267 333.827 669.544C335.059 671.784 335.675 674.36 335.675 677.272L335.619 678.504ZM321.395 665.736C318.557 665.736 316.168 666.651 314.227 668.48C312.323 670.272 311.24 672.624 310.979 675.536H331.867C331.605 672.624 330.504 670.272 328.563 668.48C326.659 666.651 324.269 665.736 321.395 665.736ZM356.744 650.448H360.72V692H356.744V650.448ZM381.247 662.32C385.092 662.32 388.042 663.291 390.095 665.232C392.148 667.136 393.175 669.973 393.175 673.744V692H389.367V687.408C388.471 688.939 387.146 690.133 385.391 690.992C383.674 691.851 381.62 692.28 379.231 692.28C375.946 692.28 373.332 691.496 371.391 689.928C369.45 688.36 368.479 686.288 368.479 683.712C368.479 681.211 369.375 679.195 371.167 677.664C372.996 676.133 375.89 675.368 379.847 675.368H389.199V673.576C389.199 671.037 388.49 669.115 387.071 667.808C385.652 666.464 383.58 665.792 380.855 665.792C378.988 665.792 377.196 666.109 375.479 666.744C373.762 667.341 372.287 668.181 371.055 669.264L369.263 666.296C370.756 665.027 372.548 664.056 374.639 663.384C376.73 662.675 378.932 662.32 381.247 662.32ZM379.847 689.144C382.087 689.144 384.01 688.64 385.615 687.632C387.22 686.587 388.415 685.093 389.199 683.152V678.336H379.959C374.919 678.336 372.399 680.091 372.399 683.6C372.399 685.317 373.052 686.68 374.359 687.688C375.666 688.659 377.495 689.144 379.847 689.144ZM406.942 668.312C407.875 666.333 409.257 664.84 411.086 663.832C412.953 662.824 415.249 662.32 417.974 662.32V666.184L417.022 666.128C413.923 666.128 411.497 667.08 409.742 668.984C407.987 670.888 407.11 673.557 407.11 676.992V692H403.134V662.544H406.942V668.312ZM451.332 662.544V688.416C451.332 693.419 450.1 697.115 447.636 699.504C445.209 701.931 441.532 703.144 436.604 703.144C433.878 703.144 431.284 702.733 428.82 701.912C426.393 701.128 424.414 700.027 422.884 698.608L424.9 695.584C426.318 696.853 428.036 697.843 430.052 698.552C432.105 699.261 434.252 699.616 436.492 699.616C440.225 699.616 442.969 698.739 444.724 696.984C446.478 695.267 447.356 692.579 447.356 688.92V685.168C446.124 687.035 444.5 688.453 442.484 689.424C440.505 690.395 438.302 690.88 435.876 690.88C433.113 690.88 430.593 690.283 428.316 689.088C426.076 687.856 424.302 686.157 422.996 683.992C421.726 681.789 421.092 679.307 421.092 676.544C421.092 673.781 421.726 671.317 422.996 669.152C424.302 666.987 426.076 665.307 428.316 664.112C430.556 662.917 433.076 662.32 435.876 662.32C438.377 662.32 440.636 662.824 442.652 663.832C444.668 664.84 446.292 666.296 447.524 668.2V662.544H451.332ZM436.268 687.352C438.396 687.352 440.318 686.904 442.036 686.008C443.753 685.075 445.078 683.787 446.012 682.144C446.982 680.501 447.468 678.635 447.468 676.544C447.468 674.453 446.982 672.605 446.012 671C445.078 669.357 443.753 668.088 442.036 667.192C440.356 666.259 438.433 665.792 436.268 665.792C434.14 665.792 432.217 666.24 430.5 667.136C428.82 668.032 427.494 669.301 426.524 670.944C425.59 672.587 425.124 674.453 425.124 676.544C425.124 678.635 425.59 680.501 426.524 682.144C427.494 683.787 428.82 685.075 430.5 686.008C432.217 686.904 434.14 687.352 436.268 687.352ZM487.258 678.504H462.618C462.842 681.565 464.018 684.048 466.146 685.952C468.274 687.819 470.962 688.752 474.21 688.752C476.04 688.752 477.72 688.435 479.25 687.8C480.781 687.128 482.106 686.157 483.226 684.888L485.466 687.464C484.16 689.032 482.517 690.227 480.538 691.048C478.597 691.869 476.45 692.28 474.098 692.28C471.074 692.28 468.386 691.645 466.034 690.376C463.72 689.069 461.909 687.277 460.602 685C459.296 682.723 458.642 680.147 458.642 677.272C458.642 674.397 459.258 671.821 460.49 669.544C461.76 667.267 463.477 665.493 465.642 664.224C467.845 662.955 470.309 662.32 473.034 662.32C475.76 662.32 478.205 662.955 480.37 664.224C482.536 665.493 484.234 667.267 485.466 669.544C486.698 671.784 487.314 674.36 487.314 677.272L487.258 678.504ZM473.034 665.736C470.197 665.736 467.808 666.651 465.866 668.48C463.962 670.272 462.88 672.624 462.618 675.536H483.506C483.245 672.624 482.144 670.272 480.202 668.48C478.298 666.651 475.909 665.736 473.034 665.736ZM502.463 692.28C500.074 692.28 497.778 691.944 495.575 691.272C493.41 690.563 491.711 689.685 490.479 688.64L492.271 685.504C493.503 686.475 495.053 687.277 496.919 687.912C498.786 688.509 500.727 688.808 502.743 688.808C505.431 688.808 507.41 688.397 508.679 687.576C509.986 686.717 510.639 685.523 510.639 683.992C510.639 682.909 510.285 682.069 509.575 681.472C508.866 680.837 507.97 680.371 506.887 680.072C505.805 679.736 504.367 679.419 502.575 679.12C500.186 678.672 498.263 678.224 496.807 677.776C495.351 677.291 494.101 676.488 493.055 675.368C492.047 674.248 491.543 672.699 491.543 670.72C491.543 668.256 492.57 666.24 494.623 664.672C496.677 663.104 499.533 662.32 503.191 662.32C505.095 662.32 506.999 662.581 508.903 663.104C510.807 663.589 512.375 664.243 513.607 665.064L511.871 668.256C509.445 666.576 506.551 665.736 503.191 665.736C500.653 665.736 498.73 666.184 497.423 667.08C496.154 667.976 495.519 669.152 495.519 670.608C495.519 671.728 495.874 672.624 496.583 673.296C497.33 673.968 498.245 674.472 499.327 674.808C500.41 675.107 501.903 675.424 503.807 675.76C506.159 676.208 508.045 676.656 509.463 677.104C510.882 677.552 512.095 678.317 513.103 679.4C514.111 680.483 514.615 681.976 514.615 683.88C514.615 686.456 513.533 688.509 511.367 690.04C509.239 691.533 506.271 692.28 502.463 692.28ZM536.638 690.208C535.891 690.88 534.958 691.403 533.838 691.776C532.755 692.112 531.616 692.28 530.422 692.28C527.659 692.28 525.531 691.533 524.038 690.04C522.544 688.547 521.798 686.437 521.798 683.712V665.904H516.534V662.544H521.798V656.104H525.774V662.544H534.734V665.904H525.774V683.488C525.774 685.243 526.203 686.587 527.062 687.52C527.958 688.416 529.227 688.864 530.87 688.864C531.691 688.864 532.475 688.733 533.222 688.472C534.006 688.211 534.678 687.837 535.238 687.352L536.638 690.208ZM569.06 692.28C566.148 692.28 563.535 691.645 561.22 690.376C558.943 689.107 557.151 687.333 555.844 685.056C554.537 682.741 553.884 680.147 553.884 677.272C553.884 674.397 554.537 671.821 555.844 669.544C557.151 667.267 558.943 665.493 561.22 664.224C563.535 662.955 566.148 662.32 569.06 662.32C571.599 662.32 573.857 662.824 575.836 663.832C577.852 664.803 579.439 666.24 580.596 668.144L577.628 670.16C576.657 668.704 575.425 667.621 573.932 666.912C572.439 666.165 570.815 665.792 569.06 665.792C566.932 665.792 565.009 666.277 563.292 667.248C561.612 668.181 560.287 669.525 559.316 671.28C558.383 673.035 557.916 675.032 557.916 677.272C557.916 679.549 558.383 681.565 559.316 683.32C560.287 685.037 561.612 686.381 563.292 687.352C565.009 688.285 566.932 688.752 569.06 688.752C570.815 688.752 572.439 688.397 573.932 687.688C575.425 686.979 576.657 685.896 577.628 684.44L580.596 686.456C579.439 688.36 577.852 689.816 575.836 690.824C573.82 691.795 571.561 692.28 569.06 692.28ZM599.114 692.28C596.277 692.28 593.72 691.645 591.442 690.376C589.165 689.069 587.373 687.277 586.066 685C584.76 682.723 584.106 680.147 584.106 677.272C584.106 674.397 584.76 671.821 586.066 669.544C587.373 667.267 589.165 665.493 591.442 664.224C593.72 662.955 596.277 662.32 599.114 662.32C601.952 662.32 604.509 662.955 606.786 664.224C609.064 665.493 610.837 667.267 612.106 669.544C613.413 671.821 614.066 674.397 614.066 677.272C614.066 680.147 613.413 682.723 612.106 685C610.837 687.277 609.064 689.069 606.786 690.376C604.509 691.645 601.952 692.28 599.114 692.28ZM599.114 688.752C601.205 688.752 603.072 688.285 604.714 687.352C606.394 686.381 607.701 685.019 608.634 683.264C609.568 681.509 610.034 679.512 610.034 677.272C610.034 675.032 609.568 673.035 608.634 671.28C607.701 669.525 606.394 668.181 604.714 667.248C603.072 666.277 601.205 665.792 599.114 665.792C597.024 665.792 595.138 666.277 593.458 667.248C591.816 668.181 590.509 669.525 589.538 671.28C588.605 673.035 588.138 675.032 588.138 677.272C588.138 679.512 588.605 681.509 589.538 683.264C590.509 685.019 591.816 686.381 593.458 687.352C595.138 688.285 597.024 688.752 599.114 688.752ZM658.08 662.32C661.776 662.32 664.669 663.384 666.76 665.512C668.888 667.64 669.952 670.776 669.952 674.92V692H665.976V675.312C665.976 672.251 665.229 669.917 663.736 668.312C662.28 666.707 660.208 665.904 657.52 665.904C654.458 665.904 652.05 666.856 650.296 668.76C648.541 670.627 647.664 673.221 647.664 676.544V692H643.688V675.312C643.688 672.251 642.941 669.917 641.448 668.312C639.992 666.707 637.901 665.904 635.176 665.904C632.152 665.904 629.744 666.856 627.952 668.76C626.197 670.627 625.32 673.221 625.32 676.544V692H621.344V662.544H625.152V667.92C626.197 666.128 627.653 664.747 629.52 663.776C631.386 662.805 633.533 662.32 635.96 662.32C638.424 662.32 640.552 662.843 642.344 663.888C644.173 664.933 645.536 666.483 646.432 668.536C647.514 666.595 649.064 665.083 651.08 664C653.133 662.88 655.466 662.32 658.08 662.32ZM716.63 662.32C720.326 662.32 723.22 663.384 725.31 665.512C727.438 667.64 728.502 670.776 728.502 674.92V692H724.526V675.312C724.526 672.251 723.78 669.917 722.286 668.312C720.83 666.707 718.758 665.904 716.07 665.904C713.009 665.904 710.601 666.856 708.846 668.76C707.092 670.627 706.214 673.221 706.214 676.544V692H702.238V675.312C702.238 672.251 701.492 669.917 699.998 668.312C698.542 666.707 696.452 665.904 693.726 665.904C690.702 665.904 688.294 666.856 686.502 668.76C684.748 670.627 683.87 673.221 683.87 676.544V692H679.894V662.544H683.702V667.92C684.748 666.128 686.204 664.747 688.07 663.776C689.937 662.805 692.084 662.32 694.51 662.32C696.974 662.32 699.102 662.843 700.894 663.888C702.724 664.933 704.086 666.483 704.982 668.536C706.065 666.595 707.614 665.083 709.63 664C711.684 662.88 714.017 662.32 716.63 662.32ZM764.989 662.544V692H761.181V686.624C760.136 688.416 758.698 689.816 756.869 690.824C755.04 691.795 752.949 692.28 750.597 692.28C746.752 692.28 743.709 691.216 741.469 689.088C739.266 686.923 738.165 683.768 738.165 679.624V662.544H742.141V679.232C742.141 682.331 742.906 684.683 744.437 686.288C745.968 687.893 748.152 688.696 750.989 688.696C754.088 688.696 756.533 687.763 758.325 685.896C760.117 683.992 761.013 681.36 761.013 678V662.544H764.989ZM790.293 662.32C793.989 662.32 796.919 663.403 799.085 665.568C801.287 667.696 802.389 670.813 802.389 674.92V692H798.413V675.312C798.413 672.251 797.647 669.917 796.117 668.312C794.586 666.707 792.402 665.904 789.565 665.904C786.391 665.904 783.871 666.856 782.005 668.76C780.175 670.627 779.261 673.221 779.261 676.544V692H775.285V662.544H779.093V667.976C780.175 666.184 781.669 664.803 783.573 663.832C785.514 662.824 787.754 662.32 790.293 662.32ZM812.343 662.544H816.319V692H812.343V662.544ZM814.359 656.104C813.538 656.104 812.847 655.824 812.287 655.264C811.727 654.704 811.447 654.032 811.447 653.248C811.447 652.501 811.727 651.848 812.287 651.288C812.847 650.728 813.538 650.448 814.359 650.448C815.181 650.448 815.871 650.728 816.431 651.288C816.991 651.811 817.271 652.445 817.271 653.192C817.271 654.013 816.991 654.704 816.431 655.264C815.871 655.824 815.181 656.104 814.359 656.104ZM842.054 690.208C841.308 690.88 840.374 691.403 839.254 691.776C838.172 692.112 837.033 692.28 835.838 692.28C833.076 692.28 830.948 691.533 829.454 690.04C827.961 688.547 827.214 686.437 827.214 683.712V665.904H821.95V662.544H827.214V656.104H831.19V662.544H840.15V665.904H831.19V683.488C831.19 685.243 831.62 686.587 832.478 687.52C833.374 688.416 834.644 688.864 836.286 688.864C837.108 688.864 837.892 688.733 838.638 688.472C839.422 688.211 840.094 687.837 840.654 687.352L842.054 690.208ZM872.657 662.544L857.929 695.528C856.735 698.291 855.353 700.251 853.785 701.408C852.217 702.565 850.332 703.144 848.129 703.144C846.711 703.144 845.385 702.92 844.153 702.472C842.921 702.024 841.857 701.352 840.961 700.456L842.809 697.488C844.303 698.981 846.095 699.728 848.185 699.728C849.529 699.728 850.668 699.355 851.601 698.608C852.572 697.861 853.468 696.592 854.289 694.8L855.577 691.944L842.417 662.544H846.561L857.649 687.576L868.737 662.544H872.657ZM903.273 692.28C900.436 692.28 897.879 691.645 895.601 690.376C893.324 689.069 891.532 687.277 890.225 685C888.919 682.723 888.265 680.147 888.265 677.272C888.265 674.397 888.919 671.821 890.225 669.544C891.532 667.267 893.324 665.493 895.601 664.224C897.879 662.955 900.436 662.32 903.273 662.32C906.111 662.32 908.668 662.955 910.945 664.224C913.223 665.493 914.996 667.267 916.265 669.544C917.572 671.821 918.225 674.397 918.225 677.272C918.225 680.147 917.572 682.723 916.265 685C914.996 687.277 913.223 689.069 910.945 690.376C908.668 691.645 906.111 692.28 903.273 692.28ZM903.273 688.752C905.364 688.752 907.231 688.285 908.873 687.352C910.553 686.381 911.86 685.019 912.793 683.264C913.727 681.509 914.193 679.512 914.193 677.272C914.193 675.032 913.727 673.035 912.793 671.28C911.86 669.525 910.553 668.181 908.873 667.248C907.231 666.277 905.364 665.792 903.273 665.792C901.183 665.792 899.297 666.277 897.617 667.248C895.975 668.181 894.668 669.525 893.697 671.28C892.764 673.035 892.297 675.032 892.297 677.272C892.297 679.512 892.764 681.509 893.697 683.264C894.668 685.019 895.975 686.381 897.617 687.352C899.297 688.285 901.183 688.752 903.273 688.752ZM935.247 653.528C933.529 653.528 932.223 653.995 931.327 654.928C930.468 655.861 930.039 657.243 930.039 659.072V662.544H939.111V665.904H930.151V692H926.175V665.904H920.911V662.544H926.175V658.904C926.175 656.216 926.94 654.088 928.471 652.52C930.039 650.952 932.241 650.168 935.079 650.168C936.199 650.168 937.281 650.336 938.327 650.672C939.372 650.971 940.249 651.419 940.959 652.016L939.615 654.984C938.457 654.013 937.001 653.528 935.247 653.528ZM972.631 662.32C975.394 662.32 977.895 662.955 980.135 664.224C982.375 665.456 984.13 667.211 985.399 669.488C986.669 671.765 987.303 674.36 987.303 677.272C987.303 680.221 986.669 682.835 985.399 685.112C984.13 687.389 982.375 689.163 980.135 690.432C977.933 691.664 975.431 692.28 972.631 692.28C970.242 692.28 968.077 691.795 966.135 690.824C964.231 689.816 962.663 688.36 961.431 686.456V702.864H957.455V662.544H961.263V668.368C962.458 666.427 964.026 664.933 965.967 663.888C967.946 662.843 970.167 662.32 972.631 662.32ZM972.351 688.752C974.405 688.752 976.271 688.285 977.951 687.352C979.631 686.381 980.938 685.019 981.871 683.264C982.842 681.509 983.327 679.512 983.327 677.272C983.327 675.032 982.842 673.053 981.871 671.336C980.938 669.581 979.631 668.219 977.951 667.248C976.271 666.277 974.405 665.792 972.351 665.792C970.261 665.792 968.375 666.277 966.695 667.248C965.053 668.219 963.746 669.581 962.775 671.336C961.842 673.053 961.375 675.032 961.375 677.272C961.375 679.512 961.842 681.509 962.775 683.264C963.746 685.019 965.053 686.381 966.695 687.352C968.375 688.285 970.261 688.752 972.351 688.752ZM1009.58 662.32C1013.27 662.32 1016.2 663.403 1018.37 665.568C1020.57 667.696 1021.67 670.813 1021.67 674.92V692H1017.7V675.312C1017.7 672.251 1016.93 669.917 1015.4 668.312C1013.87 666.707 1011.69 665.904 1008.85 665.904C1005.68 665.904 1003.16 666.856 1001.29 668.76C999.459 670.627 998.544 673.221 998.544 676.544V692H994.568V650.448H998.544V667.696C999.627 665.979 1001.12 664.653 1003.02 663.72C1004.93 662.787 1007.11 662.32 1009.58 662.32ZM1043.78 692.28C1040.94 692.28 1038.38 691.645 1036.1 690.376C1033.83 689.069 1032.03 687.277 1030.73 685C1029.42 682.723 1028.77 680.147 1028.77 677.272C1028.77 674.397 1029.42 671.821 1030.73 669.544C1032.03 667.267 1033.83 665.493 1036.1 664.224C1038.38 662.955 1040.94 662.32 1043.78 662.32C1046.61 662.32 1049.17 662.955 1051.45 664.224C1053.73 665.493 1055.5 667.267 1056.77 669.544C1058.07 671.821 1058.73 674.397 1058.73 677.272C1058.73 680.147 1058.07 682.723 1056.77 685C1055.5 687.277 1053.73 689.069 1051.45 690.376C1049.17 691.645 1046.61 692.28 1043.78 692.28ZM1043.78 688.752C1045.87 688.752 1047.73 688.285 1049.38 687.352C1051.06 686.381 1052.36 685.019 1053.3 683.264C1054.23 681.509 1054.7 679.512 1054.7 677.272C1054.7 675.032 1054.23 673.035 1053.3 671.28C1052.36 669.525 1051.06 668.181 1049.38 667.248C1047.73 666.277 1045.87 665.792 1043.78 665.792C1041.69 665.792 1039.8 666.277 1038.12 667.248C1036.48 668.181 1035.17 669.525 1034.2 671.28C1033.27 673.035 1032.8 675.032 1032.8 677.272C1032.8 679.512 1033.27 681.509 1034.2 683.264C1035.17 685.019 1036.48 686.381 1038.12 687.352C1039.8 688.285 1041.69 688.752 1043.78 688.752ZM1081.52 690.208C1080.77 690.88 1079.84 691.403 1078.72 691.776C1077.64 692.112 1076.5 692.28 1075.3 692.28C1072.54 692.28 1070.41 691.533 1068.92 690.04C1067.42 688.547 1066.68 686.437 1066.68 683.712V665.904H1061.41V662.544H1066.68V656.104H1070.65V662.544H1079.61V665.904H1070.65V683.488C1070.65 685.243 1071.08 686.587 1071.94 687.52C1072.84 688.416 1074.11 688.864 1075.75 688.864C1076.57 688.864 1077.36 688.733 1078.1 688.472C1078.89 688.211 1079.56 687.837 1080.12 687.352L1081.52 690.208ZM1098.92 692.28C1096.08 692.28 1093.52 691.645 1091.24 690.376C1088.97 689.069 1087.18 687.277 1085.87 685C1084.56 682.723 1083.91 680.147 1083.91 677.272C1083.91 674.397 1084.56 671.821 1085.87 669.544C1087.18 667.267 1088.97 665.493 1091.24 664.224C1093.52 662.955 1096.08 662.32 1098.92 662.32C1101.75 662.32 1104.31 662.955 1106.59 664.224C1108.87 665.493 1110.64 667.267 1111.91 669.544C1113.22 671.821 1113.87 674.397 1113.87 677.272C1113.87 680.147 1113.22 682.723 1111.91 685C1110.64 687.277 1108.87 689.069 1106.59 690.376C1104.31 691.645 1101.75 692.28 1098.92 692.28ZM1098.92 688.752C1101.01 688.752 1102.87 688.285 1104.52 687.352C1106.2 686.381 1107.5 685.019 1108.44 683.264C1109.37 681.509 1109.84 679.512 1109.84 677.272C1109.84 675.032 1109.37 673.035 1108.44 671.28C1107.5 669.525 1106.2 668.181 1104.52 667.248C1102.87 666.277 1101.01 665.792 1098.92 665.792C1096.83 665.792 1094.94 666.277 1093.26 667.248C1091.62 668.181 1090.31 669.525 1089.34 671.28C1088.41 673.035 1087.94 675.032 1087.94 677.272C1087.94 679.512 1088.41 681.509 1089.34 683.264C1090.31 685.019 1091.62 686.381 1093.26 687.352C1094.94 688.285 1096.83 688.752 1098.92 688.752ZM1160.61 678.504H1135.97C1136.19 681.565 1137.37 684.048 1139.5 685.952C1141.63 687.819 1144.31 688.752 1147.56 688.752C1149.39 688.752 1151.07 688.435 1152.6 687.8C1154.13 687.128 1155.46 686.157 1156.58 684.888L1158.82 687.464C1157.51 689.032 1155.87 690.227 1153.89 691.048C1151.95 691.869 1149.8 692.28 1147.45 692.28C1144.43 692.28 1141.74 691.645 1139.39 690.376C1137.07 689.069 1135.26 687.277 1133.95 685C1132.65 682.723 1131.99 680.147 1131.99 677.272C1131.99 674.397 1132.61 671.821 1133.84 669.544C1135.11 667.267 1136.83 665.493 1138.99 664.224C1141.2 662.955 1143.66 662.32 1146.39 662.32C1149.11 662.32 1151.56 662.955 1153.72 664.224C1155.89 665.493 1157.59 667.267 1158.82 669.544C1160.05 671.784 1160.67 674.36 1160.67 677.272L1160.61 678.504ZM1146.39 665.736C1143.55 665.736 1141.16 666.651 1139.22 668.48C1137.31 670.272 1136.23 672.624 1135.97 675.536H1156.86C1156.6 672.624 1155.5 670.272 1153.55 668.48C1151.65 666.651 1149.26 665.736 1146.39 665.736ZM1182.93 662.32C1186.62 662.32 1189.55 663.403 1191.72 665.568C1193.92 667.696 1195.02 670.813 1195.02 674.92V692H1191.05V675.312C1191.05 672.251 1190.28 669.917 1188.75 668.312C1187.22 666.707 1185.04 665.904 1182.2 665.904C1179.03 665.904 1176.51 666.856 1174.64 668.76C1172.81 670.627 1171.9 673.221 1171.9 676.544V692H1167.92V662.544H1171.73V667.976C1172.81 666.184 1174.3 664.803 1176.21 663.832C1178.15 662.824 1180.39 662.32 1182.93 662.32ZM1220.49 690.208C1219.74 690.88 1218.81 691.403 1217.69 691.776C1216.61 692.112 1215.47 692.28 1214.27 692.28C1211.51 692.28 1209.38 691.533 1207.89 690.04C1206.4 688.547 1205.65 686.437 1205.65 683.712V665.904H1200.39V662.544H1205.65V656.104H1209.63V662.544H1218.59V665.904H1209.63V683.488C1209.63 685.243 1210.05 686.587 1210.91 687.52C1211.81 688.416 1213.08 688.864 1214.72 688.864C1215.54 688.864 1216.33 688.733 1217.07 688.472C1217.86 688.211 1218.53 687.837 1219.09 687.352L1220.49 690.208ZM1241.9 662.32C1245.59 662.32 1248.52 663.403 1250.69 665.568C1252.89 667.696 1253.99 670.813 1253.99 674.92V692H1250.02V675.312C1250.02 672.251 1249.25 669.917 1247.72 668.312C1246.19 666.707 1244 665.904 1241.17 665.904C1237.99 665.904 1235.47 666.856 1233.61 668.76C1231.78 670.627 1230.86 673.221 1230.86 676.544V692H1226.89V650.448H1230.86V667.696C1231.95 665.979 1233.44 664.653 1235.34 663.72C1237.25 662.787 1239.43 662.32 1241.9 662.32ZM1290.49 662.544V692H1286.68V686.624C1285.64 688.416 1284.2 689.816 1282.37 690.824C1280.54 691.795 1278.45 692.28 1276.1 692.28C1272.25 692.28 1269.21 691.216 1266.97 689.088C1264.77 686.923 1263.67 683.768 1263.67 679.624V662.544H1267.64V679.232C1267.64 682.331 1268.41 684.683 1269.94 686.288C1271.47 687.893 1273.65 688.696 1276.49 688.696C1279.59 688.696 1282.03 687.763 1283.83 685.896C1285.62 683.992 1286.51 681.36 1286.51 678V662.544H1290.49ZM1308.68 692.28C1306.29 692.28 1304 691.944 1301.79 691.272C1299.63 690.563 1297.93 689.685 1296.7 688.64L1298.49 685.504C1299.72 686.475 1301.27 687.277 1303.14 687.912C1305 688.509 1306.95 688.808 1308.96 688.808C1311.65 688.808 1313.63 688.397 1314.9 687.576C1316.2 686.717 1316.86 685.523 1316.86 683.992C1316.86 682.909 1316.5 682.069 1315.79 681.472C1315.08 680.837 1314.19 680.371 1313.11 680.072C1312.02 679.736 1310.59 679.419 1308.79 679.12C1306.4 678.672 1304.48 678.224 1303.03 677.776C1301.57 677.291 1300.32 676.488 1299.27 675.368C1298.27 674.248 1297.76 672.699 1297.76 670.72C1297.76 668.256 1298.79 666.24 1300.84 664.672C1302.9 663.104 1305.75 662.32 1309.41 662.32C1311.31 662.32 1313.22 662.581 1315.12 663.104C1317.03 663.589 1318.59 664.243 1319.83 665.064L1318.09 668.256C1315.66 666.576 1312.77 665.736 1309.41 665.736C1306.87 665.736 1304.95 666.184 1303.64 667.08C1302.37 667.976 1301.74 669.152 1301.74 670.608C1301.74 671.728 1302.09 672.624 1302.8 673.296C1303.55 673.968 1304.46 674.472 1305.55 674.808C1306.63 675.107 1308.12 675.424 1310.03 675.76C1312.38 676.208 1314.26 676.656 1315.68 677.104C1317.1 677.552 1318.31 678.317 1319.32 679.4C1320.33 680.483 1320.83 681.976 1320.83 683.88C1320.83 686.456 1319.75 688.509 1317.59 690.04C1315.46 691.533 1312.49 692.28 1308.68 692.28ZM1327.34 662.544H1331.32V692H1327.34V662.544ZM1329.36 656.104C1328.54 656.104 1327.85 655.824 1327.29 655.264C1326.73 654.704 1326.45 654.032 1326.45 653.248C1326.45 652.501 1326.73 651.848 1327.29 651.288C1327.85 650.728 1328.54 650.448 1329.36 650.448C1330.18 650.448 1330.87 650.728 1331.43 651.288C1331.99 651.811 1332.27 652.445 1332.27 653.192C1332.27 654.013 1331.99 654.704 1331.43 655.264C1330.87 655.824 1330.18 656.104 1329.36 656.104ZM1351.85 662.32C1355.69 662.32 1358.64 663.291 1360.7 665.232C1362.75 667.136 1363.78 669.973 1363.78 673.744V692H1359.97V687.408C1359.07 688.939 1357.75 690.133 1355.99 690.992C1354.27 691.851 1352.22 692.28 1349.83 692.28C1346.55 692.28 1343.93 691.496 1341.99 689.928C1340.05 688.36 1339.08 686.288 1339.08 683.712C1339.08 681.211 1339.98 679.195 1341.77 677.664C1343.6 676.133 1346.49 675.368 1350.45 675.368H1359.8V673.576C1359.8 671.037 1359.09 669.115 1357.67 667.808C1356.25 666.464 1354.18 665.792 1351.46 665.792C1349.59 665.792 1347.8 666.109 1346.08 666.744C1344.36 667.341 1342.89 668.181 1341.66 669.264L1339.86 666.296C1341.36 665.027 1343.15 664.056 1345.24 663.384C1347.33 662.675 1349.53 662.32 1351.85 662.32ZM1350.45 689.144C1352.69 689.144 1354.61 688.64 1356.22 687.632C1357.82 686.587 1359.02 685.093 1359.8 683.152V678.336H1350.56C1345.52 678.336 1343 680.091 1343 683.6C1343 685.317 1343.65 686.68 1344.96 687.688C1346.27 688.659 1348.1 689.144 1350.45 689.144ZM1381.63 692.28C1379.24 692.28 1376.95 691.944 1374.74 691.272C1372.58 690.563 1370.88 689.685 1369.65 688.64L1371.44 685.504C1372.67 686.475 1374.22 687.277 1376.09 687.912C1377.95 688.509 1379.89 688.808 1381.91 688.808C1384.6 688.808 1386.58 688.397 1387.85 687.576C1389.15 686.717 1389.81 685.523 1389.81 683.992C1389.81 682.909 1389.45 682.069 1388.74 681.472C1388.03 680.837 1387.14 680.371 1386.05 680.072C1384.97 679.736 1383.53 679.419 1381.74 679.12C1379.35 678.672 1377.43 678.224 1375.97 677.776C1374.52 677.291 1373.27 676.488 1372.22 675.368C1371.21 674.248 1370.71 672.699 1370.71 670.72C1370.71 668.256 1371.74 666.24 1373.79 664.672C1375.84 663.104 1378.7 662.32 1382.36 662.32C1384.26 662.32 1386.17 662.581 1388.07 663.104C1389.97 663.589 1391.54 664.243 1392.77 665.064L1391.04 668.256C1388.61 666.576 1385.72 665.736 1382.36 665.736C1379.82 665.736 1377.9 666.184 1376.59 667.08C1375.32 667.976 1374.69 669.152 1374.69 670.608C1374.69 671.728 1375.04 672.624 1375.75 673.296C1376.5 673.968 1377.41 674.472 1378.49 674.808C1379.58 675.107 1381.07 675.424 1382.97 675.76C1385.33 676.208 1387.21 676.656 1388.63 677.104C1390.05 677.552 1391.26 678.317 1392.27 679.4C1393.28 680.483 1393.78 681.976 1393.78 683.88C1393.78 686.456 1392.7 688.509 1390.53 690.04C1388.41 691.533 1385.44 692.28 1381.63 692.28ZM1415.8 690.208C1415.06 690.88 1414.12 691.403 1413 691.776C1411.92 692.112 1410.78 692.28 1409.59 692.28C1406.83 692.28 1404.7 691.533 1403.2 690.04C1401.71 688.547 1400.96 686.437 1400.96 683.712V665.904H1395.7V662.544H1400.96V656.104H1404.94V662.544H1413.9V665.904H1404.94V683.488C1404.94 685.243 1405.37 686.587 1406.23 687.52C1407.12 688.416 1408.39 688.864 1410.04 688.864C1410.86 688.864 1411.64 688.733 1412.39 688.472C1413.17 688.211 1413.84 687.837 1414.4 687.352L1415.8 690.208ZM1430.1 692.28C1427.71 692.28 1425.41 691.944 1423.21 691.272C1421.05 690.563 1419.35 689.685 1418.11 688.64L1419.91 685.504C1421.14 686.475 1422.69 687.277 1424.55 687.912C1426.42 688.509 1428.36 688.808 1430.38 688.808C1433.07 688.808 1435.05 688.397 1436.31 687.576C1437.62 686.717 1438.27 685.523 1438.27 683.992C1438.27 682.909 1437.92 682.069 1437.21 681.472C1436.5 680.837 1435.61 680.371 1434.52 680.072C1433.44 679.736 1432 679.419 1430.21 679.12C1427.82 678.672 1425.9 678.224 1424.44 677.776C1422.99 677.291 1421.74 676.488 1420.69 675.368C1419.68 674.248 1419.18 672.699 1419.18 670.72C1419.18 668.256 1420.21 666.24 1422.26 664.672C1424.31 663.104 1427.17 662.32 1430.83 662.32C1432.73 662.32 1434.63 662.581 1436.54 663.104C1438.44 663.589 1440.01 664.243 1441.24 665.064L1439.51 668.256C1437.08 666.576 1434.19 665.736 1430.83 665.736C1428.29 665.736 1426.37 666.184 1425.06 667.08C1423.79 667.976 1423.15 669.152 1423.15 670.608C1423.15 671.728 1423.51 672.624 1424.22 673.296C1424.97 673.968 1425.88 674.472 1426.96 674.808C1428.05 675.107 1429.54 675.424 1431.44 675.76C1433.79 676.208 1435.68 676.656 1437.1 677.104C1438.52 677.552 1439.73 678.317 1440.74 679.4C1441.75 680.483 1442.25 681.976 1442.25 683.88C1442.25 686.456 1441.17 688.509 1439 690.04C1436.87 691.533 1433.91 692.28 1430.1 692.28Z" fill="black"/>
<rect x="744" y="752" width="192" height="52" rx="6" fill="#18A0FB"/>
<path d="M798.024 784.436C797.31 784.436 796.647 784.289 796.035 783.994C795.423 783.688 794.93 783.263 794.556 782.719L795.542 781.563C796.199 782.504 797.026 782.974 798.024 782.974C798.692 782.974 799.197 782.77 799.537 782.362C799.888 781.954 800.064 781.353 800.064 780.56V773.879H795.763V772.4H801.747V780.475C801.747 781.79 801.429 782.781 800.795 783.45C800.171 784.107 799.248 784.436 798.024 784.436ZM808.575 784.402C807.68 784.402 806.875 784.204 806.161 783.807C805.447 783.41 804.886 782.866 804.478 782.175C804.082 781.472 803.883 780.679 803.883 779.795C803.883 778.911 804.082 778.123 804.478 777.432C804.886 776.729 805.447 776.185 806.161 775.8C806.875 775.403 807.68 775.205 808.575 775.205C809.471 775.205 810.27 775.403 810.972 775.8C811.686 776.185 812.242 776.729 812.638 777.432C813.046 778.123 813.25 778.911 813.25 779.795C813.25 780.679 813.046 781.472 812.638 782.175C812.242 782.866 811.686 783.41 810.972 783.807C810.27 784.204 809.471 784.402 808.575 784.402ZM808.575 782.974C809.153 782.974 809.669 782.844 810.122 782.583C810.587 782.311 810.95 781.937 811.21 781.461C811.471 780.974 811.601 780.418 811.601 779.795C811.601 779.172 811.471 778.622 811.21 778.146C810.95 777.659 810.587 777.285 810.122 777.024C809.669 776.763 809.153 776.633 808.575 776.633C807.997 776.633 807.476 776.763 807.011 777.024C806.558 777.285 806.195 777.659 805.923 778.146C805.663 778.622 805.532 779.172 805.532 779.795C805.532 780.418 805.663 780.974 805.923 781.461C806.195 781.937 806.558 782.311 807.011 782.583C807.476 782.844 807.997 782.974 808.575 782.974ZM815.252 775.29H816.884V784.3H815.252V775.29ZM816.068 773.556C815.751 773.556 815.485 773.454 815.269 773.25C815.065 773.046 814.963 772.797 814.963 772.502C814.963 772.207 815.065 771.958 815.269 771.754C815.485 771.539 815.751 771.431 816.068 771.431C816.386 771.431 816.646 771.533 816.85 771.737C817.066 771.93 817.173 772.173 817.173 772.468C817.173 772.774 817.066 773.035 816.85 773.25C816.646 773.454 816.386 773.556 816.068 773.556ZM824.556 775.205C825.701 775.205 826.608 775.539 827.276 776.208C827.956 776.865 828.296 777.834 828.296 779.115V784.3H826.664V779.302C826.664 778.429 826.455 777.772 826.035 777.33C825.616 776.888 825.015 776.667 824.233 776.667C823.349 776.667 822.652 776.928 822.142 777.449C821.632 777.959 821.377 778.696 821.377 779.659V784.3H819.745V775.29H821.309V776.65C821.638 776.185 822.08 775.828 822.635 775.579C823.202 775.33 823.842 775.205 824.556 775.205ZM837.973 773.879H833.893V772.4H843.736V773.879H839.656V784.3H837.973V773.879ZM848.024 784.402C847.129 784.402 846.324 784.204 845.61 783.807C844.896 783.41 844.335 782.866 843.927 782.175C843.53 781.472 843.332 780.679 843.332 779.795C843.332 778.911 843.53 778.123 843.927 777.432C844.335 776.729 844.896 776.185 845.61 775.8C846.324 775.403 847.129 775.205 848.024 775.205C848.919 775.205 849.718 775.403 850.421 775.8C851.135 776.185 851.69 776.729 852.087 777.432C852.495 778.123 852.699 778.911 852.699 779.795C852.699 780.679 852.495 781.472 852.087 782.175C851.69 782.866 851.135 783.41 850.421 783.807C849.718 784.204 848.919 784.402 848.024 784.402ZM848.024 782.974C848.602 782.974 849.118 782.844 849.571 782.583C850.036 782.311 850.398 781.937 850.659 781.461C850.92 780.974 851.05 780.418 851.05 779.795C851.05 779.172 850.92 778.622 850.659 778.146C850.398 777.659 850.036 777.285 849.571 777.024C849.118 776.763 848.602 776.633 848.024 776.633C847.446 776.633 846.925 776.763 846.46 777.024C846.007 777.285 845.644 777.659 845.372 778.146C845.111 778.622 844.981 779.172 844.981 779.795C844.981 780.418 845.111 780.974 845.372 781.461C845.644 781.937 846.007 782.311 846.46 782.583C846.925 782.844 847.446 782.974 848.024 782.974ZM863.201 771.686V784.3H861.637V782.872C861.274 783.371 860.815 783.75 860.26 784.011C859.705 784.272 859.093 784.402 858.424 784.402C857.551 784.402 856.769 784.209 856.078 783.824C855.387 783.439 854.843 782.9 854.446 782.209C854.061 781.506 853.868 780.702 853.868 779.795C853.868 778.888 854.061 778.089 854.446 777.398C854.843 776.707 855.387 776.168 856.078 775.783C856.769 775.398 857.551 775.205 858.424 775.205C859.07 775.205 859.665 775.33 860.209 775.579C860.753 775.817 861.206 776.174 861.569 776.65V771.686H863.201ZM858.56 782.974C859.127 782.974 859.642 782.844 860.107 782.583C860.572 782.311 860.934 781.937 861.195 781.461C861.456 780.974 861.586 780.418 861.586 779.795C861.586 779.172 861.456 778.622 861.195 778.146C860.934 777.659 860.572 777.285 860.107 777.024C859.642 776.763 859.127 776.633 858.56 776.633C857.982 776.633 857.461 776.763 856.996 777.024C856.543 777.285 856.18 777.659 855.908 778.146C855.647 778.622 855.517 779.172 855.517 779.795C855.517 780.418 855.647 780.974 855.908 781.461C856.18 781.937 856.543 782.311 856.996 782.583C857.461 782.844 857.982 782.974 858.56 782.974ZM869.315 775.205C870.562 775.205 871.514 775.511 872.171 776.123C872.84 776.735 873.174 777.647 873.174 778.86V784.3H871.627V783.11C871.355 783.529 870.964 783.852 870.454 784.079C869.955 784.294 869.36 784.402 868.669 784.402C867.66 784.402 866.85 784.158 866.238 783.671C865.637 783.184 865.337 782.543 865.337 781.75C865.337 780.957 865.626 780.322 866.204 779.846C866.782 779.359 867.7 779.115 868.958 779.115H871.542V778.792C871.542 778.089 871.338 777.551 870.93 777.177C870.522 776.803 869.921 776.616 869.128 776.616C868.595 776.616 868.074 776.707 867.564 776.888C867.054 777.058 866.623 777.29 866.272 777.585L865.592 776.361C866.057 775.987 866.612 775.704 867.258 775.511C867.904 775.307 868.59 775.205 869.315 775.205ZM868.941 783.144C869.564 783.144 870.103 783.008 870.556 782.736C871.009 782.453 871.338 782.056 871.542 781.546V780.288H869.026C867.643 780.288 866.952 780.753 866.952 781.682C866.952 782.135 867.128 782.492 867.479 782.753C867.83 783.014 868.318 783.144 868.941 783.144ZM883.746 775.29L879.377 785.201C878.992 786.119 878.538 786.765 878.017 787.139C877.507 787.513 876.889 787.7 876.164 787.7C875.722 787.7 875.291 787.626 874.872 787.479C874.464 787.343 874.124 787.139 873.852 786.867L874.549 785.643C875.014 786.085 875.552 786.306 876.164 786.306C876.561 786.306 876.889 786.198 877.15 785.983C877.422 785.779 877.666 785.422 877.881 784.912L878.17 784.283L874.192 775.29H875.892L879.037 782.498L882.148 775.29H883.746Z" fill="white"/>
<circle cx="840" cy="480" r="66" fill="#18A0FB"/>
<path d="M864.5 476.902C866.5 478.057 866.5 480.943 864.5 482.098L829.25 502.45C827.25 503.604 824.75 502.161 824.75 499.852V459.148C824.75 456.839 827.25 455.396 829.25 456.55L864.5 476.902Z" fill="white"/>
</svg>
